# Blender 4.4.0
# www.blender.org
o x2aln.003
v -32.615879 -23.944017 7.017114
v -38.058784 -0.000012 7.455486
v -14.381579 -0.000004 23.431030
v -12.274930 -19.206852 22.296635
v -9.977846 -0.000003 24.594013
v 15.577239 0.000006 25.461317
v 47.490013 -19.407001 23.087883
v 48.481411 0.000016 24.813059
v 52.284641 -25.211918 5.730316
v 54.924885 -23.791573 5.701719
v 55.963757 0.000019 5.778069
v -9.977840 -17.119368 23.993505
v -35.351627 -17.624374 7.493802
v 50.501980 0.000017 23.059292
v 46.956123 -16.614063 24.765591
v -32.615894 23.943998 7.017114
v 52.284630 25.211956 5.730316
v 46.956116 16.614096 24.765591
v 47.489998 19.407034 23.087883
v -12.274942 19.206846 22.296635
v -9.977853 17.119362 23.993505
v 54.924870 23.791611 5.701719
v -35.351639 17.624353 7.493802
vn 0.2502 -0.8956 0.3679
vn 0.4392 -0.8085 0.3917
vn 0.0279 -0.9457 0.3240
vn -0.5458 -0.1743 0.8196
vn -0.5308 -0.2898 0.7964
vn -0.5357 -0.1254 0.8350
vn 0.4392 0.8085 0.3917
vn 0.2502 0.8956 0.3679
vn 0.0279 0.9457 0.3240
vn -0.5308 0.2898 0.7964
vn -0.5458 0.1743 0.8196
vn -0.5357 0.1254 0.8350
vn -0.4294 -0.0000 0.9031
vn -0.3644 -0.0818 0.9276
vn -0.1452 -0.0000 0.9894
vn -0.5593 -0.0000 0.8290
vn -0.0093 -0.9512 0.3085
vn -0.0095 -0.9514 0.3077
vn 0.9362 -0.0000 0.3514
vn 0.9129 -0.0978 0.3962
vn 0.9149 -0.0412 0.4016
vn 0.8498 -0.0000 0.5270
vn 0.8494 -0.1287 0.5118
vn -0.3644 0.0818 0.9276
vn -0.0093 0.9512 0.3085
vn -0.0095 0.9514 0.3077
vn 0.9129 0.0978 0.3962
vn 0.8494 0.1287 0.5118
vn -0.0134 -0.0000 -0.9999
vn -0.0152 -0.0000 -0.9999
vn -0.0091 -0.0000 -1.0000
vn -0.0124 0.6224 0.7826
vn -0.0123 0.6199 0.7846
vn -0.0072 0.5196 0.8544
vn -0.0070 0.5159 0.8566
vn 0.0733 -0.0000 -0.9973
vn -0.0803 -0.0000 -0.9968
vn -0.2675 0.0432 -0.9626
vn -0.0129 0.0662 0.9977
vn 0.0197 -0.0000 0.9998
vn 0.0197 0.0047 0.9998
vn -0.0339 -0.0000 0.9994
vn -0.0070 -0.5159 0.8566
vn -0.0123 -0.6199 0.7846
vn -0.0072 -0.5196 0.8544
vn -0.0124 -0.6224 0.7826
vn -0.2675 -0.0432 -0.9626
vn 0.0197 -0.0047 0.9998
vn -0.0129 -0.0662 0.9977
vn 0.6555 -0.0000 0.7552
vn 0.9149 0.0412 0.4016
vt 0.482000 0.502000
vt 0.498000 0.502000
vt 0.455000 0.616000
vt 0.890000 0.353000
vt 0.937000 0.357000
vt 0.898000 0.467000
vt 0.467000 0.710000
vt 0.357000 0.706000
vt 0.467000 0.706000
vt 0.753000 0.467000
vt 0.753000 0.345000
vt 0.114000 0.612000
vt 0.000000 0.510000
vt 0.969000 0.651000
vt 0.816000 0.800000
vt 0.784000 0.651000
vt 0.969000 0.800000
vt 0.839000 0.812000
vt 0.000000 0.000000
vt 0.588000 0.710000
vt 0.576000 0.710000
vt 0.592000 0.620000
vt 0.573000 0.620000
vt 0.471000 0.671000
vt 0.471000 0.620000
vt 0.471000 0.710000
vt 0.361000 0.620000
vt 0.345000 0.620000
vt 0.361000 0.710000
vt 0.345000 0.710000
vt 0.969000 0.812000
s 1
f 9/1/1 10/2/2 7/3/3
f 13/4/4 1/5/5 4/6/6
f 22/2/7 17/1/8 19/3/9
f 16/5/10 23/4/11 20/6/12
f 3/7/13 12/8/14 5/9/15
f 13/4/4 3/10/13 2/11/16
f 9/1/1 4/12/17 1/13/18
f 11/14/19 7/15/20 10/16/21
f 14/17/22 15/18/23 7/15/20
f 21/8/24 3/7/13 5/9/15
f 3/10/13 23/4/11 2/11/16
f 20/12/25 17/1/8 16/13/26
f 11/14/19 19/15/27 14/17/22
f 18/18/28 14/17/22 19/15/27
f 17/1/29 1/13/30 16/19/30
f 9/1/29 22/19/31 10/2/31
f 20/20/32 21/21/33 19/22/34
f 21/21/33 18/23/35 19/22/34
f 11/14/36 10/16/31 22/19/31
f 1/13/37 2/19/37 16/19/37
f 2/11/38 23/4/38 16/5/38
f 21/21/39 6/19/39 18/23/39
f 6/24/40 8/25/40 18/18/41
f 5/26/15 6/24/42 21/21/24
f 15/27/43 12/19/44 7/28/45
f 12/29/44 4/30/46 7/28/45
f 13/4/47 2/11/47 1/13/47
f 6/24/40 15/18/48 8/31/40
f 5/26/15 12/29/14 6/24/42
f 12/19/49 15/27/49 6/24/49
f 3/7/13 4/30/6 12/8/14
f 13/4/4 4/6/6 3/10/13
f 9/1/1 7/3/3 4/12/17
f 11/14/19 14/17/22 7/15/20
f 14/17/22 8/31/50 15/18/23
f 21/8/24 20/30/12 3/7/13
f 3/10/13 20/6/12 23/4/11
f 20/12/25 19/3/9 17/1/8
f 11/14/19 22/16/51 19/15/27
f 18/18/28 8/31/50 14/17/22
f 17/1/29 9/1/29 1/13/30
f 9/1/29 17/1/29 22/19/31
o x2aln.004
v 57.632030 -19.559414 10.791749
v 57.860802 -19.788179 9.905284
v 57.565102 19.578613 10.791749
v 57.860786 19.788216 9.905284
v 56.850212 18.730179 10.839505
v 56.774162 -18.358397 10.829781
v 56.421291 -20.007509 9.076009
v 56.688362 20.074173 9.209549
vn 0.0664 -0.0004 0.9978
vn 0.0446 0.0001 0.9990
vn 0.0444 0.0001 0.9990
vn 0.9489 0.0016 0.3156
vn 0.9680 -0.0000 0.2508
vn 0.9683 -0.0000 0.2499
vn 0.5100 -0.0005 -0.8602
vn 0.4994 -0.0000 -0.8664
vn 0.5102 -0.0005 -0.8600
vn -0.6344 0.5643 0.5283
vn -0.9946 0.0063 0.1039
vn -0.9816 0.0022 0.1908
vn -0.9944 0.0062 0.1058
vn -0.9807 0.0020 0.1955
vn 0.0833 0.9632 0.2555
vn 0.0031 -0.9681 0.2506
vn -0.6508 -0.4834 0.5855
vn 0.0671 -0.0004 0.9977
vn 0.9485 0.0016 0.3168
vn 0.4992 -0.0000 -0.8665
vt 0.580000 0.294000
vt 0.388000 0.294000
vt 0.380000 0.294000
vt 0.604000 0.275000
vt 0.392000 0.286000
vt 0.392000 0.275000
vt 0.576000 0.271000
vt 0.380000 0.271000
vt 0.000000 0.000000
vt 0.576000 0.298000
vt 0.604000 0.286000
vt 0.384000 0.271000
s 1
f 26/32/52 29/33/53 24/34/54
f 27/35/55 24/36/56 25/37/57
f 27/38/58 30/39/59 31/38/60
f 26/32/61 31/40/61 28/41/61
f 31/38/62 30/39/63 28/41/64
f 30/39/63 29/33/65 28/41/64
f 27/38/66 31/38/66 26/32/66
f 25/37/67 24/36/67 30/39/67
f 24/34/68 29/33/68 30/39/68
f 26/32/52 28/41/69 29/33/53
f 27/35/55 26/42/70 24/36/56
f 27/38/58 25/43/71 30/39/59
o x2aln.005
v -21.940258 -30.673716 10.839498
v -23.808414 -25.631159 10.086287
v -24.904772 -25.450146 9.371394
v -23.284256 -29.853878 10.124605
v -21.911665 -30.873888 6.931328
v -23.246223 -30.044613 6.931328
v -24.265947 -23.858227 6.435766
v -25.552753 -23.953735 6.435766
vn 0.9444 0.3281 0.0225
vn 0.9416 0.3367 0.0067
vn 0.9466 0.3203 0.0369
vn -0.0804 0.8834 0.4616
vn -0.1326 0.8831 0.4500
vn -0.1457 0.8826 0.4469
vn 0.0005 -0.0798 -0.9968
vn -0.0503 -0.0880 -0.9949
vn 0.0059 -0.0789 -0.9969
vn -0.5297 -0.8471 0.0429
vn -0.5336 -0.8448 0.0405
vn -0.5273 -0.8485 0.0444
vn -0.5450 -0.0601 0.8363
vn -0.5008 -0.0543 0.8639
vn -0.4942 -0.0535 0.8677
vn -0.9366 -0.3498 0.0221
vn -0.9378 -0.3467 0.0154
vn -0.9390 -0.3439 0.0094
vn 0.9382 0.3460 -0.0109
vn -0.0655 0.8831 0.4646
vn -0.0552 -0.0888 -0.9945
vn -0.5355 -0.8436 0.0393
vn -0.5522 -0.0610 0.8315
vn -0.9356 -0.3521 0.0270
vt 0.020000 0.576000
vt 0.000000 0.557000
vt 0.027000 0.553000
vt 0.055000 0.588000
vt 0.039000 0.608000
vt 0.039000 0.612000
vt 0.004000 0.592000
vt 0.055000 0.592000
vt 0.000000 0.592000
vt 0.008000 0.612000
vt 0.000000 0.616000
vt 0.000000 0.576000
s 1
f 33/44/72 36/45/73 38/46/74
f 38/47/75 34/48/76 33/49/77
f 38/47/78 37/50/79 39/51/80
f 36/52/81 35/53/82 37/50/83
f 33/49/84 35/53/85 32/54/86
f 34/48/87 37/50/88 35/53/89
f 33/44/72 32/55/90 36/45/73
f 38/47/75 39/51/91 34/48/76
f 38/47/78 36/52/92 37/50/79
f 36/52/81 32/54/93 35/53/82
f 33/49/84 34/48/94 35/53/85
f 34/48/87 39/51/95 37/50/88
o x2aln.006
v -24.904789 25.450132 9.371394
v -23.284275 29.853865 10.124605
v -23.246243 30.044600 6.931328
v -25.552767 23.953720 6.435766
v -21.940277 30.673700 10.839498
v -23.808434 25.631144 10.086287
v -21.911684 30.873875 6.931328
v -24.265961 23.858213 6.435766
vn 0.9444 -0.3281 0.0225
vn 0.9416 -0.3367 0.0067
vn 0.9382 -0.3460 -0.0109
vn -0.1326 -0.8831 0.4500
vn -0.0804 -0.8834 0.4616
vn -0.1457 -0.8826 0.4469
vn 0.0005 0.0798 -0.9968
vn -0.0503 0.0880 -0.9949
vn -0.0552 0.0888 -0.9945
vn -0.5297 0.8471 0.0429
vn -0.5336 0.8448 0.0405
vn -0.5355 0.8436 0.0393
vn -0.5008 0.0543 0.8639
vn -0.5450 0.0601 0.8363
vn -0.4942 0.0535 0.8677
vn -0.9366 0.3498 0.0221
vn -0.9378 0.3467 0.0154
vn -0.9356 0.3521 0.0270
vn 0.9466 -0.3203 0.0369
vn -0.0655 -0.8831 0.4646
vn 0.0059 0.0789 -0.9969
vn -0.5273 0.8485 0.0444
vn -0.5522 0.0610 0.8315
vn -0.9390 0.3439 0.0094
vt 0.020000 0.576000
vt 0.000000 0.557000
vt 0.000000 0.576000
vt 0.039000 0.608000
vt 0.055000 0.588000
vt 0.039000 0.612000
vt 0.004000 0.592000
vt 0.000000 0.592000
vt 0.008000 0.612000
vt 0.000000 0.616000
vt 0.055000 0.592000
vt 0.027000 0.553000
s 1
f 45/56/96 46/57/97 44/58/98
f 40/59/99 47/60/100 45/61/101
f 47/60/102 42/62/103 46/63/104
f 46/63/105 41/64/106 44/65/107
f 41/64/108 45/61/109 44/65/110
f 40/59/111 42/62/112 43/66/113
f 45/56/96 47/67/114 46/57/97
f 40/59/99 43/66/115 47/60/100
f 47/60/102 43/66/116 42/62/103
f 46/63/105 42/62/117 41/64/106
f 41/64/108 40/59/118 45/61/109
f 40/59/111 41/64/119 42/62/112
o x2aln.007
v -58.237595 1.420328 3.757206
v -40.775375 1.820673 6.397445
v -62.908417 2.630781 -0.655962
v -58.237595 -8.416580 3.757206
v -40.775372 -8.416574 6.397445
v -62.908413 -9.427152 -0.655962
vn -0.0397 -0.9640 0.2628
vn -0.0721 0.9398 0.3340
vn -0.6868 -0.0000 0.7269
vn -0.1495 -0.0000 0.9888
vn 0.3036 -0.0000 -0.9528
vt 0.235000 0.624000
vt 0.227000 0.761000
vt 0.227000 0.655000
vt 0.149000 0.624000
vt 0.157000 0.655000
vt 0.157000 0.761000
s 1
f 53/68/120 52/69/120 51/70/120
f 50/71/121 48/72/121 49/73/121
f 48/72/122 53/68/122 51/70/122
f 52/69/123 48/72/123 51/70/123
f 50/71/124 52/69/124 53/68/124
f 48/72/122 50/71/122 53/68/122
f 52/69/123 49/73/123 48/72/123
f 50/71/124 49/73/124 52/69/124
o x2aln.008
v -65.548637 -24.744705 -8.538929
v -65.119705 -24.287174 -19.471909
v -60.191814 -25.755274 -19.481630
v -58.542706 -27.118143 -8.043365
v -49.077545 -23.658066 2.699167
v -62.107731 -18.692144 0.468705
v -67.397926 -18.549168 -8.615279
v -66.292130 -18.577766 -19.491068
v -67.769676 -0.000021 -18.890558
v -68.351021 -0.000022 -8.615279
v -61.793179 -23.696386 -1.342257
v -52.489868 -0.000016 3.290240
v -32.615879 -23.944017 7.017114
v -38.058784 -0.000012 7.455486
v 52.284641 -25.211918 5.730316
v 54.924885 -23.791573 5.701719
v 55.963757 0.000019 5.778069
v 56.688374 -25.002026 -3.486923
v 57.660633 -25.049782 -7.461720
v 60.415245 0.000020 -7.442847
v 59.014053 0.000020 -17.432171
v 56.078148 -25.783833 -19.929430
v -47.133034 -26.965725 -2.381424
v -36.381069 -27.280275 -7.480886
v -33.673916 -25.707512 -20.815901
v 33.192177 -27.280251 -7.738243
v 44.573254 -27.213621 -3.048553
v -52.089523 -18.186857 3.309114
v -35.351627 -17.624374 7.493802
v 52.932617 -26.069790 3.414067
v 55.230000 -24.306295 3.404632
v 56.230846 -20.674646 3.433228
v 53.657242 -26.803555 -7.452284
v 53.952629 -26.613108 -3.629901
v -62.383965 -22.485647 -0.884726
v 56.755001 0.000019 3.461821
v 59.500187 -20.626890 -7.461720
v 58.442150 -23.925116 -17.775318
v 57.660614 25.049820 -7.461720
v 53.657223 26.803591 -7.452284
v 59.500175 20.626932 -7.461720
v 58.442131 23.925152 -17.775318
v 56.230831 20.674683 3.433228
v -32.615894 23.943998 7.017114
v 52.284630 25.211956 5.730316
v 52.932606 26.069826 3.414067
v 53.952610 26.613146 -3.629901
v 44.573235 27.213650 -3.048553
v -47.133053 26.965696 -2.381424
v -49.077557 23.658033 2.699167
v 33.192162 27.280275 -7.738243
v -36.381084 27.280251 -7.480886
v 56.688362 25.002064 -3.486923
v 55.229984 24.306334 3.404632
v 54.924870 23.791611 5.701719
v 56.078129 25.783871 -19.929430
v -35.351639 17.624353 7.493802
v -62.107746 18.692106 0.468705
v -62.383976 22.485609 -0.884726
v -67.397934 18.549126 -8.615279
v -65.548660 24.744663 -8.538929
v -52.089539 18.186825 3.309114
v -61.793194 23.696348 -1.342257
v -58.542725 27.118107 -8.043365
v -65.119728 24.287132 -19.471909
v -66.292145 18.577723 -19.491068
v -60.191833 25.755238 -19.481630
v -33.673935 25.707493 -20.815901
vn -0.0789 -0.9560 0.2826
vn -0.2321 -0.8990 0.3714
vn -0.1785 -0.9780 0.1083
vn -0.1508 -0.8539 0.4982
vn 0.1660 -0.9861 -0.0013
vn 0.3139 -0.9461 0.0799
vn 0.0147 -0.9969 0.0773
vn -0.0196 -0.9440 0.3295
vn 0.3007 -0.9211 0.2472
vn -0.0088 -0.9385 0.3451
vn -0.2321 0.8990 0.3714
vn -0.0789 0.9560 0.2826
vn -0.1785 0.9780 0.1083
vn -0.1508 0.8539 0.4982
vn 0.3139 0.9461 0.0799
vn 0.1660 0.9861 -0.0013
vn 0.0147 0.9969 0.0773
vn -0.0196 0.9440 0.3295
vn 0.3007 0.9211 0.2472
vn -0.0088 0.9385 0.3451
vn -0.0018 -0.9996 -0.0284
vn 0.0037 -1.0000 -0.0052
vn 0.0037 1.0000 -0.0052
vn -0.0018 0.9996 -0.0284
vn 0.7077 -0.6720 0.2181
vn 0.4748 -0.8716 0.1219
vn 0.7077 0.6720 0.2181
vn 0.4748 0.8716 0.1219
vn -0.9974 -0.0000 -0.0714
vn -0.9836 -0.1637 -0.0762
vn -0.9984 -0.0000 -0.0565
vn -0.3200 -0.9435 0.0859
vn -0.1640 -0.9827 -0.0859
vn -0.9698 -0.2297 -0.0821
vn -0.9569 -0.2862 -0.0495
vn -0.2476 -0.2391 0.9389
vn -0.1264 -0.0796 0.9888
vn -0.2606 -0.1341 0.9561
vn 0.9426 -0.0000 0.3339
vn 0.9354 -0.1171 0.3336
vn 0.9488 -0.0000 0.3158
vn 0.5433 -0.7744 0.3243
vn 0.4341 -0.7985 0.4172
vn 0.9755 -0.1870 0.1161
vn 0.9920 -0.0000 -0.1260
vn 0.9958 -0.0000 0.0917
vn -0.9836 0.1637 -0.0762
vn -0.9852 0.1396 -0.0998
vn -0.3200 0.9435 0.0859
vn -0.1640 0.9827 -0.0859
vn -0.2852 0.9571 -0.0512
vn -0.9698 0.2297 -0.0821
vn -0.9569 0.2862 -0.0495
vn -0.1264 0.0796 0.9888
vn -0.2476 0.2391 0.9389
vn -0.2606 0.1341 0.9561
vn 0.9354 0.1171 0.3336
vn 0.9343 0.1594 0.3189
vn 0.5433 0.7744 0.3243
vn 0.9755 0.1870 0.1161
vn 0.9907 0.1204 -0.0631
vn -0.0157 0.0031 -0.9999
vn 0.0099 -0.0000 -1.0000
vn -0.0156 -0.0031 -0.9999
vn -0.0021 0.9931 -0.1176
vn 0.0243 0.9968 -0.0767
vn 0.0004 0.9926 -0.1212
vn -0.2613 -0.3640 0.8940
vn 0.5577 -0.8296 0.0272
vn 0.4428 -0.8955 -0.0444
vn 0.5897 -0.8062 0.0485
vn 0.6759 0.0056 -0.7370
vn 0.6501 -0.0000 -0.7598
vn 0.6720 0.0048 -0.7405
vn 0.6720 -0.0048 -0.7405
vn -0.0512 0.0047 -0.9987
vn -0.0440 0.0299 -0.9986
vn -0.0493 0.1590 -0.9860
vn 0.8923 0.3926 0.2230
vn 0.9185 -0.3666 0.1483
vn 0.9185 0.3666 0.1483
vn 0.6759 -0.0056 -0.7370
vn -0.2815 -0.0000 0.9596
vn 0.0243 -0.9968 -0.0767
vn 0.0004 -0.9926 -0.1212
vn -0.0021 -0.9931 -0.1176
vn -0.0493 -0.1590 -0.9860
vn -0.0440 -0.0299 -0.9986
vn -0.0512 -0.0047 -0.9987
vn -0.3765 -0.0000 -0.9264
vn 0.0187 0.0163 0.9997
vn 0.0194 0.0069 0.9998
vn 0.0195 -0.0000 0.9998
vn -0.0858 0.1118 0.9900
vn -0.2613 0.3640 0.8940
vn -0.2689 0.4525 0.8503
vn -0.8545 0.2818 0.4365
vn -0.8276 0.2940 0.4781
vn -0.7218 0.5234 0.4529
vn -0.8276 -0.2940 0.4781
vn -0.8680 -0.1243 0.4807
vn -0.8545 -0.2818 0.4365
vn 0.9907 -0.1204 -0.0631
vn 0.5577 0.8296 0.0272
vn 0.4428 0.8955 -0.0444
vn 0.4002 0.9138 -0.0693
vn 0.8922 -0.3927 0.2230
vn -0.8636 0.0444 0.5022
vn -0.8617 0.0834 0.5005
vn -0.8680 0.1243 0.4807
vn -0.1496 -0.0000 0.9887
vn -0.2586 0.2007 0.9449
vn -0.8241 -0.0000 0.5664
vn -0.2773 -0.0000 0.9608
vn 0.0187 -0.0163 0.9997
vn 0.0194 -0.0069 0.9998
vn -0.7218 -0.5233 0.4529
vn -0.8617 -0.0834 0.5005
vn -0.8636 -0.0444 0.5022
vn -0.0858 -0.1118 0.9900
vn -0.2586 -0.2007 0.9449
vn -0.2689 -0.4525 0.8503
vn -0.9852 -0.1396 -0.0998
vn -0.2852 -0.9571 -0.0512
vn 0.9343 -0.1594 0.3189
vn 0.4341 0.7985 0.4172
vn 0.4002 -0.9138 -0.0693
vn 0.3991 -0.9105 0.1086
vn 0.5897 0.8062 0.0485
vn 0.3991 0.9105 0.1086
vt 0.110000 0.435000
vt 0.020000 0.443000
vt 0.039000 0.400000
vt 0.098000 0.471000
vt 0.722000 0.404000
vt 0.725000 0.431000
vt 0.667000 0.435000
vt 0.196000 0.498000
vt 0.722000 0.478000
vt 0.714000 0.490000
vt 0.176000 0.404000
vt 0.600000 0.400000
vt 0.475000 1.000000
vt 0.443000 0.914000
vt 0.467000 0.914000
vt 0.816000 0.835000
vt 0.953000 0.906000
vt 0.816000 0.906000
vt 0.000000 0.396000
vt 0.031000 0.322000
vt 0.996000 0.831000
vt 1.000000 0.906000
vt 0.341000 0.710000
vt 0.298000 0.796000
vt 0.302000 0.690000
vt 0.565000 0.812000
vt 0.392000 0.796000
vt 0.565000 0.796000
vt 0.729000 0.490000
vt 0.537000 0.616000
vt 0.722000 0.533000
vt 0.722000 0.616000
vt 0.671000 0.906000
vt 0.671000 0.831000
vt 0.000000 0.322000
vt 0.627000 0.831000
vt 0.627000 0.906000
vt 0.043000 0.796000
vt 0.000000 0.710000
vt 0.039000 0.690000
vt 0.729000 0.796000
vt 0.753000 0.812000
vt 0.733000 0.478000
vt 0.898000 0.616000
vt 0.925000 0.529000
vt 0.031000 0.000000
vt 0.000000 0.000000
vt 0.192000 0.314000
vt 0.031000 0.031000
vt 0.000000 0.031000
vt 0.329000 0.627000
vt 0.345000 0.714000
vt 0.765000 0.714000
vt 0.502000 0.616000
vt 0.012000 0.302000
vt 0.004000 0.298000
vt 0.780000 0.714000
vt 0.937000 0.616000
vt 0.173000 0.780000
vt 0.035000 0.627000
vt 0.173000 0.690000
vt 0.349000 0.298000
vt 0.341000 0.302000
vt 0.302000 0.627000
vt 0.008000 0.627000
vt 0.447000 1.000000
vt 0.953000 0.831000
vt 0.341000 0.812000
vt 0.369000 0.812000
vt 0.510000 0.529000
vt 0.000000 0.812000
vt 0.357000 0.714000
s 1
f 76/74/125 64/75/126 57/76/127
f 76/74/125 58/77/128 64/75/126
f 86/78/129 87/79/130 80/80/131
f 66/81/132 58/77/128 76/74/125
f 80/80/131 87/79/130 83/82/133
f 83/82/133 68/83/134 66/81/132
f 116/75/135 102/74/136 117/76/137
f 103/77/138 102/74/136 116/75/135
f 100/79/139 93/78/140 101/80/141
f 103/77/138 97/81/142 102/74/136
f 100/79/139 101/80/141 99/82/143
f 98/83/144 99/82/143 97/81/142
f 77/84/145 76/74/125 57/76/127
f 86/78/129 80/80/131 79/85/146
f 104/85/147 101/80/141 93/78/140
f 117/76/137 102/74/136 105/84/148
f 84/86/149 87/87/130 71/88/150
f 100/87/139 107/86/151 106/88/152
f 62/89/153 60/90/154 63/91/155
f 54/92/156 56/93/157 57/76/127
f 60/90/154 55/94/158 54/95/159
f 58/96/160 82/97/161 81/98/162
f 70/99/163 85/100/164 89/101/165
f 83/82/133 69/102/166 68/83/167
f 80/80/131 66/81/132 76/74/125
f 76/74/125 79/85/146 80/80/131
f 90/103/168 74/104/169 73/105/170
f 62/89/153 113/106/171 119/107/172
f 114/92/173 120/93/174 118/108/175
f 118/109/176 113/106/171 114/110/177
f 110/111/178 103/112/179 115/113/180
f 70/99/163 96/114/181 108/115/182
f 99/82/143 108/102/183 107/116/151
f 97/81/142 101/80/141 102/74/136
f 102/74/136 104/85/147 105/84/148
f 94/117/184 74/104/169 95/118/185
f 56/93/157 77/84/145 57/76/127
f 121/119/186 75/120/187 78/120/188
f 120/93/174 105/84/148 121/121/189
f 93/122/140 109/123/190 104/85/147
f 109/123/191 121/120/191 104/85/191
f 121/123/189 105/122/148 104/85/147
f 81/98/162 88/124/192 58/96/160
f 91/122/193 86/125/194 75/120/195
f 95/122/196 74/123/197 109/123/198
f 74/123/197 75/120/199 109/123/198
f 89/101/165 94/117/184 96/114/181
f 86/78/129 71/88/150 87/79/130
f 119/123/200 118/119/201 121/119/186
f 118/122/201 120/123/202 121/121/186
f 106/88/203 108/120/203 92/126/203
f 85/100/164 72/127/204 90/103/168
f 94/117/184 95/118/185 92/126/205
f 91/122/206 75/120/199 74/123/197
f 59/120/207 65/120/207 111/120/207
f 86/78/129 79/85/146 75/120/208
f 79/85/209 78/120/209 75/120/209
f 79/85/146 77/84/145 78/120/210
f 56/120/211 55/119/212 78/121/188
f 55/122/212 61/123/213 78/120/188
f 61/123/213 62/119/214 119/123/200
f 114/92/173 116/75/135 117/76/137
f 106/88/152 107/86/151 108/115/183
f 98/83/215 110/120/178 108/102/216
f 110/120/178 70/99/217 108/115/216
f 110/120/178 98/83/215 97/81/218
f 112/128/219 103/77/179 116/75/220
f 114/92/221 112/128/222 116/129/223
f 88/124/224 60/90/225 54/95/226
f 90/103/168 89/101/165 85/100/164
f 82/120/161 70/99/217 110/120/178
f 90/103/168 72/127/204 91/122/227
f 95/120/228 93/122/229 92/126/230
f 69/120/231 71/120/231 72/127/231
f 106/88/152 93/130/140 100/79/139
f 63/91/232 111/120/233 113/106/234
f 96/114/181 92/131/205 108/120/182
f 121/119/186 61/120/213 119/120/200
f 115/113/180 67/132/235 110/111/178
f 67/132/235 82/97/161 110/120/178
f 111/133/236 67/132/235 115/113/180
f 63/91/237 59/120/237 111/120/237
f 65/134/238 67/132/235 111/133/236
f 84/86/149 71/88/150 69/120/166
f 82/120/161 68/83/239 69/102/240
f 64/75/126 54/92/156 57/76/127
f 64/135/241 88/136/224 54/92/226
f 112/128/222 113/106/234 111/133/233
f 59/120/242 63/91/243 60/90/225
f 67/132/235 81/98/162 82/97/161
f 66/81/244 68/83/239 82/120/161
f 65/120/238 59/120/245 67/132/235
f 59/137/245 81/98/162 67/132/235
f 115/113/180 112/138/219 111/133/236
f 88/136/192 64/135/246 58/77/160
f 84/86/149 83/139/133 87/87/130
f 100/87/139 99/139/143 107/86/151
f 62/89/153 61/140/247 60/90/154
f 54/92/156 55/108/248 56/93/157
f 60/90/154 61/140/247 55/94/158
f 58/96/160 66/141/244 82/97/161
f 70/99/163 69/142/249 85/100/164
f 83/82/133 84/116/149 69/102/166
f 80/80/131 83/82/133 66/81/132
f 76/74/125 77/84/145 79/85/146
f 90/103/168 91/143/227 74/104/169
f 62/89/153 63/91/155 113/106/171
f 114/92/173 117/76/137 120/93/174
f 118/109/176 119/107/172 113/106/171
f 110/111/178 97/144/218 103/112/179
f 70/99/163 89/101/165 96/114/181
f 99/82/143 98/83/250 108/102/183
f 97/81/142 99/82/143 101/80/141
f 102/74/136 101/80/141 104/85/147
f 94/117/184 73/105/170 74/104/169
f 56/93/157 78/121/210 77/84/145
f 121/119/186 109/123/187 75/120/187
f 120/93/174 117/76/137 105/84/148
f 81/98/162 59/137/245 88/124/192
f 91/122/193 72/145/251 86/125/194
f 89/101/165 73/105/170 94/117/184
f 86/78/129 72/127/252 71/88/150
f 85/100/164 69/120/249 72/127/204
f 88/124/224 59/137/242 60/90/225
f 90/103/168 73/105/170 89/101/165
f 82/120/161 69/142/240 70/99/217
f 95/120/228 109/123/253 93/122/229
f 106/88/152 92/126/254 93/130/140
f 96/114/181 94/117/184 92/131/205
f 121/119/186 78/120/188 61/120/213
f 112/128/222 114/92/221 113/106/234
f 115/113/180 103/77/179 112/138/219
o x2aln.009
v 52.370430 -23.705788 10.534389
v 57.632030 -19.559414 10.791749
v 53.237740 -24.859047 7.541279
v 57.860802 -19.788179 9.905284
v 56.774162 -18.358397 10.829781
v 56.421291 -20.007509 9.076009
vn -0.0153 -0.0426 0.9990
vn 0.5050 -0.0590 -0.8611
vn 0.5573 -0.7126 0.4263
vn 0.5683 -0.7380 0.3640
vn 0.5717 -0.7466 0.3402
vn -0.6898 0.5903 -0.4192
vn -0.6889 0.5867 -0.4257
vn -0.6891 0.5876 -0.4240
vn -0.6901 0.5914 -0.4172
vn 0.2934 0.6663 -0.6856
vn 0.8131 0.5789 0.0604
vn 0.5557 -0.7090 0.4342
vt 0.388000 0.294000
vt 0.361000 0.310000
vt 0.380000 0.294000
vt 0.380000 0.271000
vt 0.384000 0.271000
vt 0.361000 0.263000
vt 0.361000 0.286000
vt 0.384000 0.282000
vt 0.384000 0.286000
vt 0.365000 0.275000
s 1
f 126/146/255 122/147/255 123/148/255
f 127/149/256 125/150/256 124/151/256
f 122/152/257 125/153/258 123/154/259
f 127/149/260 124/151/261 122/152/262
f 126/146/263 127/149/260 122/152/262
f 126/146/264 125/150/264 127/149/264
f 125/150/265 126/146/265 123/148/265
f 122/152/257 124/155/266 125/153/258
o x2aln.010
v 52.370419 23.753578 10.534389
v 57.565102 19.578613 10.791749
v 57.860786 19.788216 9.905284
v 53.237724 24.821056 7.541279
v 56.850212 18.730179 10.839505
v 56.688362 20.074173 9.209549
vn -0.0026 0.0583 0.9983
vn 0.5234 0.0824 -0.8481
vn 0.5639 0.7152 0.4129
vn 0.5701 0.7293 0.3783
vn 0.5630 0.7133 0.4175
vn -0.6627 -0.6203 -0.4196
vn -0.6517 -0.6218 -0.4344
vn -0.6667 -0.6197 -0.4142
vn -0.6395 -0.6231 -0.4503
vn 0.1948 -0.7472 -0.6354
vn 0.7635 -0.6374 0.1039
vn 0.5723 0.7346 0.3646
vt 0.580000 0.294000
vt 0.600000 0.310000
vt 0.576000 0.298000
vt 0.576000 0.271000
vt 0.600000 0.263000
vt 0.361000 0.286000
vt 0.384000 0.282000
vt 0.365000 0.275000
vt 0.384000 0.286000
s 1
f 129/156/267 128/157/267 132/158/267
f 133/159/268 131/160/268 130/159/268
f 128/161/269 130/162/270 131/163/271
f 131/163/272 132/158/273 128/157/274
f 133/159/275 132/158/273 131/163/272
f 133/159/276 130/159/276 132/158/276
f 130/162/277 129/164/277 132/158/277
f 128/161/269 129/164/278 130/162/270
