# Blender 4.4.0
# www.blender.org
o t2mtn.001
v 74.856895 0.000000 -18.702730
v 74.904305 0.000000 -7.385334
v 71.563309 0.000000 -3.006635
v -40.421612 0.000000 11.223429
v -76.315865 0.000000 -4.291621
v -74.440910 0.000000 -15.047617
v -72.175316 24.719631 -15.732949
v -62.913914 29.078913 -17.893744
v -61.495564 32.401058 -4.101442
v -48.626747 32.705456 1.438323
v -35.767063 32.524704 -4.624866
v -33.454071 30.068932 -19.035967
v 32.013958 30.068932 -18.959728
v 34.269840 32.524704 -4.453538
v 46.919922 32.648346 0.762691
v 59.436935 32.458168 -6.433293
v 60.360134 30.554373 -18.702730
v -74.079109 16.210094 -15.047617
v 66.651764 27.698826 -18.702730
v -33.968071 31.867926 -14.086158
v 31.785515 31.867926 -14.733516
v -69.129593 26.889847 -16.665857
v 74.323769 0.000000 -5.472116
v 41.979824 0.000000 6.102569
v 59.998337 31.829948 -13.876853
v -62.380787 31.915613 -12.905956
v -75.763885 0.000000 -11.744604
v 59.122822 -29.564354 2.047688
v 64.472122 -29.535799 -4.881873
v 59.389244 -22.149637 3.408642
v 58.113674 -27.803621 3.418350
v -69.881454 -19.636753 4.417800
v -74.383797 -17.171272 0.058236
v -40.040962 -17.399715 10.728563
v -75.916092 -16.324316 -4.291621
v -67.349434 -29.983265 0.553102
v -69.852898 -29.174286 -4.310754
v -61.495564 -32.401058 -4.101442
v -62.380787 -31.915613 -12.905956
v -69.738678 -29.078913 -12.344270
v -69.129593 -26.889847 -16.665857
v -62.913914 -29.078913 -17.893744
v -73.393784 -25.671385 -11.963625
v -72.175316 -24.719631 -15.732949
v -73.593666 -25.671385 -4.291621
v -74.079109 -16.210094 -15.047617
v -75.364105 -16.324316 -11.782868
v 59.998337 -31.829948 -13.876853
v 60.360134 -30.554373 -18.702730
v 66.651764 -27.698826 -18.702730
v 66.632919 -28.879023 -14.543052
v 59.436935 -32.458168 -6.433293
v 66.604370 -28.907579 -7.432734
v 73.543350 -15.067875 -18.702730
v 73.581322 -15.696095 -7.385334
v 69.574135 -26.337585 -7.385334
v 69.621536 -26.337585 -14.809761
v 69.650085 -25.290741 -18.702730
v 72.772346 -16.171831 -5.614894
v 39.466938 -15.800609 6.035749
v 26.521885 -28.079468 5.978639
v 46.919922 -32.648346 0.762691
v -31.417204 -27.089735 9.176858
v -62.561829 -28.603176 8.072905
v -62.552113 -27.403847 9.110326
v -69.424568 -28.888731 -0.084542
v -72.127914 -25.671385 -0.179631
v -64.379669 -26.908695 8.672568
v -64.979332 -22.511148 8.672568
v -48.626747 -32.705456 1.438323
v -37.747101 -24.015167 9.966989
v -63.047272 -22.006859 9.110326
v -33.968071 -31.867926 -14.086158
v -33.454071 -30.068932 -19.035967
v 32.013958 -30.068932 -18.959728
v 31.785515 -31.867926 -14.733516
v 34.269840 -32.524704 -4.453538
v -35.767063 -32.524704 -4.624866
v 61.045467 -26.804180 2.266422
v 61.778484 -23.767590 2.247574
v 69.107536 -25.852140 -5.595762
v 34.745865 -24.024591 5.807306
v -74.878662 0.000000 0.115349
v -63.047272 22.006859 9.110326
v -74.383797 17.171272 0.058236
v -75.916092 16.324316 -4.291621
v 59.389244 22.149637 3.408642
v 69.650085 25.290741 -18.702730
v 73.543350 15.067875 -18.702730
v -40.040962 17.399715 10.728563
v -67.349434 29.983265 0.553102
v -69.852898 29.174286 -4.310754
v -69.738678 29.078913 -12.344270
v -73.393784 25.671385 -11.963625
v -73.593666 25.671385 -4.291621
v -75.364105 16.324316 -11.782868
v 66.632919 28.879023 -14.543052
v 66.604370 28.907579 -7.432734
v 73.581322 15.696095 -7.385334
v 69.621536 26.337585 -14.809761
v 69.574135 26.337585 -7.385334
v 72.772346 16.171831 -5.614894
v 26.521885 28.079468 5.978639
v -62.561829 28.603176 8.072905
v -31.417204 27.089735 9.176858
v -62.552113 27.403847 9.110326
v -72.127914 25.671385 -0.179631
v -69.424568 28.888731 -0.084542
v -69.881454 19.636753 4.417800
v -64.379669 26.908695 8.672568
v -64.979332 22.511148 8.672568
v -37.747101 24.015167 9.966989
v 59.122822 29.564354 2.047688
v 64.472122 29.535799 -4.881873
v 61.045467 26.804180 2.266422
v 58.113674 27.803621 3.418350
v 61.778484 23.767590 2.247574
v 69.107536 25.852140 -5.595762
v 34.745865 24.024591 5.807306
v 39.466938 15.800609 6.035749
vn -0.3713 -0.0083 -0.9285
vn -0.2954 -0.0000 -0.9554
vn -0.2977 -0.0008 -0.9547
vn -0.3713 0.0083 -0.9285
vn -0.2977 0.0008 -0.9547
vn 0.0025 0.2137 -0.9769
vn -0.0185 -0.0008 -0.9998
vn -0.0185 0.0008 -0.9998
vn -0.1066 -0.0000 -0.9943
vn -0.2275 0.0001 -0.9738
vn 0.2213 -0.3154 0.9228
vn 0.3552 -0.6974 0.6224
vn 0.5533 -0.2868 0.7821
vn 0.2605 -0.9598 0.1046
vn 0.5659 -0.8128 0.1379
vn 0.5232 -0.7883 0.3238
vn -0.2258 -0.7988 0.5576
vn -0.0213 -0.9660 0.2576
vn 0.0572 -0.8998 0.4326
vn -0.5042 -0.3696 0.7805
vn -0.1629 -0.3764 0.9120
vn -0.4510 -0.0443 0.8914
vn -0.6996 -0.0815 0.7098
vn -0.5546 -0.8306 0.0511
vn -0.3937 -0.8776 0.2735
vn -0.6335 -0.7170 0.2909
vn 0.0131 -0.7100 0.7041
vn 0.9775 -0.2098 -0.0208
vn 0.8037 -0.5897 -0.0787
vn 0.8215 -0.5521 -0.1424
vn -0.1775 -0.9811 0.0769
vn 0.0003 -0.9996 -0.0286
vn -0.0011 -0.9988 -0.0492
vn 0.3552 0.6974 0.6224
vn 0.2213 0.3154 0.9228
vn 0.5533 0.2868 0.7821
vn 0.5659 0.8128 0.1379
vn 0.2605 0.9598 0.1046
vn 0.5232 0.7883 0.3238
vn -0.0213 0.9660 0.2576
vn -0.2258 0.7988 0.5576
vn 0.0572 0.8998 0.4326
vn -0.5042 0.3696 0.7805
vn -0.1629 0.3764 0.9120
vn -0.6996 0.0815 0.7098
vn -0.4510 0.0443 0.8914
vn -0.3937 0.8776 0.2735
vn -0.5546 0.8306 0.0511
vn -0.6335 0.7170 0.2909
vn 0.0131 0.7100 0.7041
vn 0.8037 0.5897 -0.0787
vn 0.9775 0.2098 -0.0208
vn 0.8215 0.5521 -0.1424
vn -0.1775 0.9811 0.0769
vn 0.0003 0.9996 -0.0286
vn -0.0011 0.9988 -0.0492
vn -0.1655 -0.0103 0.9862
vn 0.3037 -0.0296 0.9523
vn 0.8662 -0.2342 0.4414
vn 0.8039 -0.5688 0.1739
vn 0.9623 -0.2074 0.1761
vn 0.7402 -0.4707 0.4802
vn 0.0493 -0.4106 0.9105
vn -0.8540 -0.1202 0.5062
vn -0.8633 -0.4886 0.1265
vn -0.7969 -0.4337 0.4206
vn 0.8446 -0.0000 0.5354
vn 0.5231 -0.8215 -0.2270
vn 0.5212 -0.8459 -0.1132
vn 0.9898 -0.0000 0.1428
vn 1.0000 -0.0000 -0.0042
vn 0.2091 -0.9676 -0.1414
vn 0.2153 -0.9450 -0.2462
vn -0.7967 -0.4594 -0.3927
vn -0.9701 -0.1148 -0.2137
vn -0.9244 -0.1009 -0.3678
vn -0.8558 -0.4802 -0.1926
vn -0.9849 -0.1263 0.1184
vn -0.9745 -0.0000 -0.2244
vn -0.5230 -0.8223 -0.2244
vn -0.4887 -0.7486 -0.4481
vn -0.1878 -0.9480 -0.2569
vn -0.2031 -0.8614 -0.4656
vn -0.0128 -0.9765 -0.2150
vn -0.9056 -0.0000 0.4241
vn -0.1655 0.0103 0.9862
vn 0.3037 0.0296 0.9523
vn 0.5143 0.0989 0.8519
vn 0.8039 0.5688 0.1739
vn 0.8662 0.2342 0.4414
vn 0.9623 0.2074 0.1761
vn 0.7402 0.4707 0.4802
vn 0.0493 0.4106 0.9105
vn -0.8540 0.1202 0.5062
vn -0.8633 0.4886 0.1265
vn -0.9849 0.1263 0.1184
vn -0.7969 0.4337 0.4206
vn 0.5231 0.8215 -0.2270
vn 0.5212 0.8459 -0.1132
vn 0.2091 0.9676 -0.1414
vn 0.2153 0.9450 -0.2462
vn -0.7967 0.4594 -0.3927
vn -0.9701 0.1148 -0.2137
vn -0.8558 0.4802 -0.1926
vn -0.9928 -0.0000 0.1200
vn -0.9244 0.1009 -0.3678
vn -0.9283 -0.0000 -0.3718
vn -0.5230 0.8223 -0.2244
vn -0.1878 0.9480 -0.2569
vn -0.2031 0.8614 -0.4656
vn -0.0128 0.9765 -0.2150
vn -0.0229 0.9388 -0.3436
vn -0.0006 0.9976 -0.0689
vn -0.0021 0.9527 -0.3039
vn -0.0625 0.0265 0.9977
vn -0.0411 0.0687 0.9968
vn -0.0060 0.2035 0.9790
vn 0.0551 0.1037 0.9931
vn 0.0520 0.1468 0.9878
vn 0.0580 0.0555 0.9968
vn 0.0740 0.0910 0.9931
vn 0.0087 0.0212 -0.9997
vn 0.0082 0.0112 -0.9999
vn 0.0874 0.0412 0.9953
vn 0.0598 -0.0000 0.9982
vn 0.0847 -0.0000 0.9964
vn 0.0062 -0.0000 -1.0000
vn 0.0066 0.0012 -1.0000
vn -0.6540 -0.0000 0.7565
vn -0.0930 -0.0000 0.9957
vn -0.0625 -0.0265 0.9977
vn -0.0411 -0.0687 0.9968
vn 0.0874 -0.0412 0.9953
vn 0.0580 -0.0555 0.9968
vn 0.0740 -0.0910 0.9931
vn 0.0074 0.0043 -1.0000
vn 0.5143 -0.0989 0.8519
vn 0.0025 -0.2137 -0.9769
vn 0.0087 -0.0212 -0.9997
vn -0.0229 -0.9388 -0.3436
vn -0.2275 -0.0001 -0.9738
vn -0.0060 -0.2035 0.9790
vn 0.0551 -0.1037 0.9931
vn 0.1529 -0.0000 0.9882
vn 0.4731 -0.0000 0.8810
vn 0.6160 0.0803 0.7837
vn 0.6661 -0.0000 0.7458
vn 0.0066 -0.0012 -1.0000
vn 0.0074 -0.0043 -1.0000
vn 0.0082 -0.0112 -0.9999
vn -0.0021 -0.9527 -0.3039
vn 0.0520 -0.1468 0.9878
vn 0.6160 -0.0803 0.7837
vn -0.0006 -0.9976 -0.0689
vn -0.4887 0.7486 -0.4481
vt 0.031000 0.000000
vt 0.031000 0.031000
vt 0.000000 0.031000
vt 0.000000 0.000000
vt 0.192000 0.247000
vt 0.216000 0.227000
vt 0.169000 0.231000
vt 0.035000 0.714000
vt 0.000000 0.706000
vt 0.012000 0.722000
vt 0.706000 0.808000
vt 0.631000 0.765000
vt 0.106000 0.761000
vt 0.855000 0.741000
vt 0.831000 0.741000
vt 0.847000 0.749000
vt 0.910000 0.741000
vt 0.949000 0.686000
vt 0.180000 0.318000
vt 0.184000 0.341000
vt 0.176000 0.341000
vt 0.192000 0.376000
vt 0.188000 0.376000
vt 0.196000 0.529000
vt 0.290000 0.251000
vt 0.208000 0.282000
vt 0.216000 0.251000
vt 0.749000 0.725000
vt 0.698000 0.725000
vt 0.733000 0.761000
vt 0.176000 0.725000
vt 0.561000 0.722000
vt 0.204000 0.282000
vt 0.212000 0.251000
vt 0.914000 0.749000
vt 0.102000 0.247000
vt 0.863000 0.780000
vt 0.776000 0.753000
vt 0.867000 0.753000
vt 0.780000 0.780000
vt 0.757000 0.753000
vt 0.047000 0.780000
vt 0.220000 0.796000
vt 0.039000 0.765000
vt 0.106000 0.341000
vt 0.157000 0.318000
vt 0.157000 0.337000
vt 0.816000 0.627000
vt 0.533000 0.812000
vt 1.000000 0.780000
vt 0.196000 0.251000
vt 0.188000 0.286000
vt 0.208000 0.341000
vt 0.286000 0.341000
vt 0.404000 0.341000
vt 0.404000 0.251000
vt 0.035000 0.663000
vt 0.035000 0.631000
vt 0.000000 0.659000
vt 0.153000 0.255000
vt 0.102000 0.275000
vt 0.102000 0.259000
vt 0.157000 0.275000
vt 0.102000 0.318000
vt 0.000000 0.278000
vt 0.180000 0.275000
vt 0.165000 0.251000
vt 0.706000 0.671000
vt 0.745000 0.671000
vt 0.710000 0.635000
vt 0.549000 0.663000
vt 0.000000 0.341000
vt 0.122000 0.231000
vt 0.827000 0.627000
vt 0.204000 0.341000
vt 0.000000 0.318000
vt 0.000000 0.259000
vt 0.545000 0.627000
vt 0.188000 0.659000
vt 0.341000 0.486000
vt 0.247000 0.490000
vt 0.212000 0.502000
vt 0.753000 0.788000
vt 0.024000 0.573000
vt 0.000000 0.624000
vt 0.000000 0.427000
vt 0.188000 0.627000
vt 0.078000 0.545000
vt 0.184000 0.529000
vt 0.082000 0.545000
vt 0.027000 0.573000
vt 0.035000 0.420000
vt 1.000000 0.812000
vt 1.000000 0.753000
vt 0.188000 0.341000
vt 0.000000 0.631000
vt 0.741000 0.643000
s 1
f 46/1/1 6/2/2 44/3/3
f 6/1/2 18/2/4 7/3/5
f 13/2/6 74/4/7 12/1/8
f 42/2/9 22/4/10 8/1/9
f 31/5/11 28/6/12 79/7/13
f 52/8/14 53/9/15 29/10/16
f 64/11/17 70/12/18 62/13/19
f 68/14/20 64/15/17 65/16/21
f 69/17/22 32/18/23 68/14/20
f 37/19/24 36/20/25 66/21/26
f 65/22/21 64/23/17 63/24/27
f 54/25/28 57/26/29 58/27/30
f 37/28/24 38/29/31 36/30/25
f 52/8/14 62/13/19 77/31/32
f 78/32/33 70/12/18 38/29/31
f 113/6/34 116/5/35 115/7/36
f 98/9/37 16/8/38 114/10/39
f 10/12/40 104/11/41 15/13/42
f 104/15/41 110/14/43 106/16/44
f 109/18/45 111/17/46 110/14/43
f 91/20/47 92/19/48 108/21/49
f 104/23/41 106/22/44 105/24/50
f 100/33/51 89/25/52 88/34/53
f 9/29/54 92/28/48 91/30/47
f 15/13/42 16/8/38 14/31/55
f 10/12/40 11/32/56 9/29/54
f 72/35/57 68/14/20 65/16/21
f 79/7/13 30/36/58 31/5/11
f 59/37/59 56/38/60 55/39/61
f 70/12/18 77/31/32 62/13/19
f 81/40/62 53/41/15 56/38/60
f 62/13/19 31/42/11 61/43/63
f 52/8/14 28/44/12 62/13/19
f 64/11/17 38/29/31 70/12/18
f 33/45/64 45/46/65 67/47/66
f 68/14/20 36/48/25 64/15/17
f 37/19/24 67/47/66 45/46/65
f 62/13/19 63/49/27 64/11/17
f 55/39/61 23/50/67 59/37/59
f 50/51/68 57/26/29 51/52/69
f 56/53/60 51/52/69 57/26/29
f 57/26/29 55/54/61 56/53/60
f 2/55/70 54/25/28 1/56/71
f 48/57/72 53/9/15 52/8/14
f 49/58/73 51/59/69 48/57/72
f 44/60/74 47/61/75 46/62/76
f 45/46/65 47/61/75 43/63/77
f 35/64/78 27/65/79 47/61/75
f 27/65/79 46/62/76 47/61/75
f 37/19/24 43/63/77 40/66/80
f 40/66/80 44/60/74 41/67/81
f 37/28/24 39/68/82 38/29/31
f 40/69/80 42/70/83 39/68/82
f 42/70/83 73/71/84 39/68/82
f 39/68/82 78/32/33 38/29/31
f 83/72/85 35/64/78 33/45/64
f 110/14/43 84/35/86 106/16/44
f 115/7/36 87/36/87 117/73/88
f 101/38/89 102/37/90 99/39/91
f 10/12/40 14/31/55 11/32/56
f 98/41/37 118/40/92 101/38/89
f 116/42/35 15/13/42 103/43/93
f 113/44/34 16/8/38 15/13/42
f 9/29/54 104/11/41 10/12/40
f 85/45/94 95/46/95 86/64/96
f 110/14/43 91/48/47 108/74/49
f 107/47/97 92/19/48 95/46/95
f 15/13/42 105/49/50 103/43/93
f 23/50/67 99/39/91 102/37/90
f 19/51/98 100/33/51 88/34/53
f 97/52/99 101/75/89 100/33/51
f 100/33/51 99/54/91 89/25/52
f 2/55/70 89/25/52 99/54/91
f 98/9/37 25/57/100 16/8/38
f 97/59/99 17/58/101 25/57/100
f 7/60/102 96/61/103 94/63/104
f 96/61/103 95/46/95 94/63/104
f 86/64/96 27/65/79 5/76/105
f 27/65/79 18/62/106 6/77/107
f 92/19/48 94/63/104 95/46/95
f 93/66/108 7/60/102 94/63/104
f 92/28/48 26/68/109 93/69/108
f 8/70/110 93/69/108 26/68/109
f 8/70/110 20/71/111 12/78/112
f 26/68/109 11/32/56 20/71/111
f 86/64/96 83/72/85 85/45/94
f 12/78/8 42/70/9 8/2/9
f 14/31/55 16/8/38 11/32/56
f 16/8/113 21/4/113 11/32/113
f 21/79/114 20/71/111 11/4/56
f 21/79/114 17/4/101 20/71/111
f 17/4/101 12/1/112 20/4/111
f 25/57/100 21/79/114 16/8/38
f 25/4/100 17/1/101 21/79/114
f 108/21/49 107/47/97 110/14/43
f 107/47/97 85/45/94 110/14/43
f 85/45/94 109/18/45 110/14/43
f 84/35/86 4/4/115 106/16/44
f 4/80/115 90/81/116 106/16/44
f 90/81/116 112/82/117 106/16/44
f 112/82/117 105/24/50 106/22/44
f 112/82/118 103/43/93 105/49/119
f 115/7/36 118/4/92 113/6/34
f 118/40/92 114/83/39 113/6/34
f 112/82/118 90/81/120 103/43/93
f 90/81/120 119/84/121 103/85/93
f 119/84/121 116/86/35 103/85/93
f 13/2/6 12/1/8 17/4/122
f 19/4/123 13/87/6 17/58/122
f 120/88/124 4/80/125 24/89/126
f 1/4/127 13/87/6 89/3/128
f 109/18/45 83/4/85 111/17/46
f 83/4/129 69/17/129 111/17/129
f 83/4/85 109/18/45 85/45/94
f 72/35/130 4/4/130 84/35/130
f 72/35/57 65/16/21 4/4/131
f 65/16/21 34/81/132 4/80/131
f 120/4/124 116/86/35 119/84/121
f 60/90/133 4/80/125 34/81/134
f 120/88/124 119/84/121 90/81/120
f 31/86/11 60/90/133 82/91/135
f 117/73/88 102/4/90 115/7/36
f 102/37/90 118/40/92 115/7/36
f 19/1/123 88/2/136 13/87/6
f 88/2/136 89/3/128 13/87/6
f 87/36/87 80/73/137 117/4/88
f 75/87/138 49/58/139 74/4/7
f 49/58/73 73/3/84 74/2/140
f 41/3/141 6/4/2 22/4/10
f 6/1/2 7/3/5 22/1/10
f 83/4/85 32/18/23 69/17/22
f 33/45/64 32/18/23 83/4/85
f 63/24/27 71/82/142 65/22/21
f 71/82/142 34/81/132 65/16/21
f 71/82/143 61/4/63 34/81/134
f 61/85/63 82/91/135 34/81/134
f 82/91/135 60/90/133 34/81/134
f 84/4/86 69/17/22 72/35/57
f 30/92/58 24/89/126 60/90/133
f 30/92/144 87/4/144 24/89/144
f 87/92/87 120/4/124 24/89/126
f 80/73/145 3/4/145 117/4/145
f 3/4/146 102/4/146 117/73/146
f 3/93/147 23/50/67 102/37/90
f 1/2/127 54/3/148 75/3/138
f 54/3/148 58/4/149 75/3/138
f 58/4/149 50/1/150 75/3/138
f 50/1/150 49/2/139 75/87/138
f 48/57/72 76/79/151 49/2/73
f 76/79/151 73/71/84 49/58/73
f 76/79/151 78/3/33 73/2/84
f 44/3/3 6/2/2 41/3/141
f 32/18/23 33/45/64 68/14/20
f 33/45/64 67/47/66 68/14/20
f 67/47/66 66/21/26 68/14/20
f 61/4/63 71/82/143 63/24/152
f 31/4/11 82/91/135 61/85/63
f 79/7/13 59/4/59 80/73/137
f 59/4/153 3/4/153 80/73/153
f 59/37/59 23/50/67 3/93/147
f 52/3/14 76/79/151 48/57/72
f 52/3/154 78/3/154 76/79/154
f 52/8/14 77/31/32 78/32/33
f 29/83/16 81/40/62 28/6/12
f 81/40/62 79/7/13 28/6/12
f 81/40/62 59/37/59 79/7/13
f 13/2/6 75/3/138 74/4/7
f 42/2/9 41/3/141 22/4/10
f 72/35/57 69/17/22 68/14/20
f 79/7/13 80/73/137 30/36/58
f 59/37/59 81/40/62 56/38/60
f 70/12/18 78/32/33 77/31/32
f 81/40/62 29/83/16 53/41/15
f 62/13/19 28/44/12 31/42/11
f 52/8/14 29/10/16 28/44/12
f 64/11/17 36/30/25 38/29/31
f 33/45/64 35/64/78 45/46/65
f 68/14/20 66/74/26 36/48/25
f 37/19/24 66/21/26 67/47/66
f 62/13/19 61/43/63 63/49/27
f 55/39/61 2/94/70 23/50/67
f 50/51/68 58/27/30 57/26/29
f 56/53/60 53/95/15 51/52/69
f 57/26/29 54/25/28 55/54/61
f 2/55/70 55/54/61 54/25/28
f 48/57/72 51/59/69 53/9/15
f 49/58/73 50/96/68 51/59/69
f 44/60/74 43/63/77 47/61/75
f 45/46/65 35/64/78 47/61/75
f 35/64/78 5/76/105 27/65/79
f 27/65/79 6/77/107 46/62/76
f 37/19/24 45/46/65 43/63/77
f 40/66/80 43/63/77 44/60/74
f 37/28/24 40/69/80 39/68/82
f 40/69/80 41/97/81 42/70/83
f 42/70/83 74/78/140 73/71/84
f 39/68/82 73/71/84 78/32/33
f 83/72/85 5/76/105 35/64/78
f 110/14/43 111/17/46 84/35/86
f 115/7/36 116/5/35 87/36/87
f 101/38/89 118/40/92 102/37/90
f 10/12/40 15/13/42 14/31/55
f 98/41/37 114/83/39 118/40/92
f 116/42/35 113/44/34 15/13/42
f 113/44/34 114/10/39 16/8/38
f 9/29/54 91/30/47 104/11/41
f 85/45/94 107/47/97 95/46/95
f 110/14/43 104/15/41 91/48/47
f 107/47/97 108/21/49 92/19/48
f 15/13/42 104/11/41 105/49/50
f 23/50/67 2/94/70 99/39/91
f 19/51/98 97/52/99 100/33/51
f 97/52/99 98/95/37 101/75/89
f 100/33/51 101/75/89 99/54/91
f 2/55/70 1/56/71 89/25/52
f 98/9/37 97/59/99 25/57/100
f 97/59/99 19/96/98 17/58/101
f 7/60/102 18/62/106 96/61/103
f 96/61/103 86/64/96 95/46/95
f 86/64/96 96/61/103 27/65/79
f 27/65/79 96/61/103 18/62/106
f 92/19/48 93/66/108 94/63/104
f 93/66/108 22/67/155 7/60/102
f 92/28/48 9/29/54 26/68/109
f 8/70/110 22/97/155 93/69/108
f 8/70/110 26/68/109 20/71/111
f 26/68/109 9/29/54 11/32/56
f 86/64/96 5/76/105 83/72/85
f 12/78/8 74/78/7 42/70/9
f 120/88/124 90/81/120 4/80/125
f 1/4/127 75/3/138 13/87/6
f 120/4/124 87/92/87 116/86/35
f 60/90/133 24/89/126 4/80/125
f 31/86/11 30/92/58 60/90/133
f 87/36/87 30/36/58 80/73/137
f 84/4/86 111/17/46 69/17/22
o t2mtn.002
v 13.281558 30.392464 11.356781
v 13.281556 28.707687 3.903798
v 14.823555 33.733456 9.167429
v 11.168453 36.884274 7.292193
v 11.168453 36.884274 11.356781
vn 0.7055 0.6489 -0.2848
vn 0.7063 0.5670 -0.4240
vn 0.6753 0.4245 -0.6031
vn 0.6264 0.2039 0.7523
vn 0.6529 0.7574 -0.0000
vn 0.9246 -0.3717 0.0840
vn -0.9557 -0.2928 0.0292
vn -0.9577 -0.2846 0.0433
vn -0.9509 -0.3095 -0.0000
vn -0.9598 -0.2737 0.0619
vt 0.878000 0.498000
vt 0.898000 0.514000
vt 0.937000 0.471000
vt 0.937000 0.529000
vt 0.878000 0.529000
vt 0.235000 0.600000
vt 0.196000 0.624000
vt 0.235000 0.624000
vt 0.188000 0.576000
s 1
f 124/98/156 123/99/157 122/100/158
f 121/101/159 123/99/159 125/102/159
f 125/102/160 123/99/157 124/98/156
f 122/100/161 123/99/161 121/101/161
f 124/103/162 121/104/163 125/105/164
f 124/103/162 122/106/165 121/104/163
o t2mtn.003
v 13.281558 -30.392464 11.356781
v 14.823555 -33.733456 9.167429
v 13.281556 -28.707687 3.903798
v 11.168453 -36.884274 7.292193
v 11.168453 -36.884274 11.356781
vn 0.7063 -0.5670 -0.4240
vn 0.7055 -0.6489 -0.2848
vn 0.6753 -0.4245 -0.6031
vn 0.6264 -0.2039 0.7523
vn 0.6529 -0.7574 -0.0000
vn 0.9246 0.3717 0.0840
vn -0.9557 0.2928 0.0292
vn -0.9577 0.2846 0.0433
vn -0.9598 0.2737 0.0619
vn -0.9509 0.3095 -0.0000
vt 0.898000 0.514000
vt 0.878000 0.498000
vt 0.937000 0.471000
vt 0.937000 0.529000
vt 0.878000 0.529000
vt 0.235000 0.600000
vt 0.192000 0.624000
vt 0.188000 0.576000
vt 0.235000 0.624000
s 1
f 127/107/166 129/108/167 128/109/168
f 127/107/169 126/110/169 130/111/169
f 127/107/166 130/111/170 129/108/167
f 127/107/171 128/109/171 126/110/171
f 129/112/172 126/113/173 128/114/174
f 129/112/172 130/115/175 126/113/173
o t2mtn.004
v 37.572857 0.000000 5.978639
v 7.675260 0.000000 21.274958
v -10.219608 0.000000 22.493423
v -21.517874 0.000000 21.627047
v -40.421612 0.000000 11.223429
v -40.040962 -17.399715 10.728563
v 26.521885 -28.079468 5.978639
v 5.961931 -21.093084 19.609318
v -10.219608 -20.921751 20.827492
v -31.417204 -27.089735 9.176858
v -37.747101 -24.015167 9.966989
v 34.698174 -17.028496 5.978639
v -21.679783 -20.579086 19.961411
v -21.517874 -16.533628 20.941717
v 6.989928 -13.849413 20.599051
v -10.219608 -16.409983 21.817513
v -40.040962 17.399715 10.728563
v 26.521885 28.079468 5.978639
v -10.219608 20.921751 20.827492
v 5.961931 21.093084 19.609318
v -31.417204 27.089735 9.176858
v -37.747101 24.015167 9.966989
v 34.698174 17.028496 5.978639
v -21.679783 20.579086 19.961411
v -21.517874 16.533628 20.941717
v 6.989928 13.849413 20.599051
v -10.219608 16.409983 21.817513
vn 0.0275 -0.8721 0.4885
vn -0.4070 -0.4344 0.8036
vn -0.1798 -0.7708 0.6112
vn -0.2248 -0.5133 0.8283
vn 0.0275 0.8721 0.4885
vn -0.1798 0.7708 0.6112
vn -0.4070 0.4344 0.8036
vn -0.2248 0.5133 0.8283
vn -0.0030 -0.5724 0.8200
vn 0.0098 -0.8910 0.4538
vn -0.4818 -0.0000 0.8763
vn -0.2776 -0.1254 0.9525
vn -0.2843 -0.0000 0.9587
vn 0.0008 -0.1269 0.9919
vn -0.0018 -0.0000 1.0000
vn 0.3070 -0.1770 0.9351
vn 0.2842 -0.1188 0.9514
vn 0.2733 -0.0000 0.9619
vn 0.4282 -0.2912 0.8555
vn 0.4425 -0.1705 0.8804
vn 0.4555 -0.0000 0.8902
vn -0.4784 -0.1376 0.8673
vn -0.0030 0.5724 0.8200
vn 0.0098 0.8910 0.4538
vn -0.2776 0.1254 0.9525
vn -0.4784 0.1376 0.8673
vn 0.0008 0.1269 0.9919
vn 0.3070 0.1770 0.9351
vn 0.2842 0.1188 0.9514
vn 0.4282 0.2912 0.8555
vn 0.4425 0.1705 0.8804
vn -0.0000 -0.0000 -1.0000
vn -0.0391 -0.0000 -0.9992
vn -0.0836 -0.0000 -0.9965
vn -0.1525 -0.0000 -0.9883
vn -0.3218 -0.0000 -0.9468
vn -0.7926 -0.0000 -0.6097
vt 0.318000 0.620000
vt 0.420000 0.624000
vt 0.188000 0.533000
vt 1.000000 0.557000
vt 0.961000 0.553000
vt 0.898000 0.620000
vt 0.725000 0.620000
vt 0.827000 0.624000
vt 0.596000 0.533000
vt 0.553000 0.553000
vt 0.906000 0.173000
vt 0.780000 0.325000
vt 0.906000 0.325000
vt 0.753000 0.694000
vt 0.765000 0.659000
vt 0.753000 0.659000
vt 0.812000 0.659000
vt 0.765000 0.694000
vt 0.812000 0.694000
vt 0.753000 0.745000
vt 0.773000 0.749000
vt 0.812000 0.749000
vt 0.753000 0.227000
vt 0.831000 0.325000
vt 0.792000 0.325000
vt 0.812000 0.188000
vt 0.365000 0.529000
vt 0.384000 0.408000
vt 0.345000 0.424000
vt 0.753000 0.176000
vt 0.827000 0.325000
vt 0.392000 0.529000
vt 0.000000 0.000000
vt 0.490000 0.620000
vt 0.788000 0.325000
s 1
f 138/116/176 139/117/176 137/118/176
f 141/119/177 140/120/178 143/121/179
f 138/122/176 139/123/176 137/124/176
f 149/117/180 150/116/180 148/118/180
f 151/120/181 152/119/182 154/121/183
f 149/123/180 150/122/180 148/124/180
f 139/117/184 140/125/178 137/118/185
f 135/126/186 144/127/187 134/128/188
f 139/129/184 144/130/187 143/131/179
f 134/132/188 146/133/189 133/134/190
f 138/135/191 146/133/189 139/129/184
f 133/134/190 145/136/192 132/137/193
f 137/138/194 145/139/192 138/140/191
f 132/128/193 142/141/195 131/126/196
f 143/142/179 136/143/197 141/144/177
f 151/125/181 149/117/198 148/118/199
f 135/126/186 155/127/200 147/145/201
f 149/129/198 155/130/200 157/133/202
f 134/132/188 157/133/202 155/130/200
f 150/135/203 157/133/202 156/136/204
f 133/134/190 156/136/204 157/133/202
f 148/138/205 156/146/204 153/141/206
f 132/128/193 153/141/206 156/146/204
f 154/142/183 147/143/201 155/147/200
f 153/141/207 131/126/207 142/141/207
f 153/141/207 142/141/207 137/138/208
f 153/141/207 137/138/208 148/138/208
f 151/120/209 141/119/210 152/148/210
f 141/144/210 136/143/211 147/148/211
f 141/144/210 147/148/211 152/144/210
f 136/145/211 135/126/212 147/145/211
f 148/118/208 140/125/209 151/148/209
f 139/117/184 143/149/179 140/125/178
f 135/126/186 136/145/197 144/127/187
f 139/129/184 146/133/189 144/130/187
f 134/132/188 144/130/187 146/133/189
f 138/135/191 145/136/192 146/133/189
f 133/134/190 146/133/189 145/136/192
f 137/138/194 142/141/195 145/139/192
f 132/128/193 145/139/192 142/141/195
f 143/142/179 144/147/187 136/143/197
f 151/125/181 154/149/183 149/117/198
f 135/126/186 134/128/188 155/127/200
f 149/129/198 154/131/183 155/130/200
f 134/132/188 133/134/190 157/133/202
f 150/135/203 149/129/198 157/133/202
f 133/134/190 132/137/193 156/136/204
f 148/138/205 150/150/203 156/146/204
f 132/128/193 131/126/196 153/141/206
f 154/142/183 152/144/182 147/143/201
f 151/120/209 140/120/209 141/119/210
f 148/118/208 137/118/208 140/125/209
